<svg width="20" height="20" viewBox="0 0 20 20" fill="none" xmlns="http://www.w3.org/2000/svg">
<path d="M8.03243 20C7.81499 20 7.63872 19.826 7.63872 19.6115C7.63872 18.8912 8.9316 16.2013 9.19006 14.0959C9.21789 13.8695 8.88597 13.7854 8.76395 13.9791C8.09823 15.0359 7.19038 16.515 4.97844 16.4633L4.93547 16.4647C4.9068 16.4656 4.87813 16.4666 4.84921 16.4666C2.44715 16.4666 0.5 14.3541 0.5 11.7483C0.5 9.14246 2.44715 7.02998 4.84921 7.02998C5.31816 7.02998 5.76966 7.11083 6.19281 7.25997C6.29151 7.29477 6.39214 7.18107 6.34305 7.08973C5.96822 6.39269 5.7531 5.58228 5.7531 4.71703C5.7531 2.14833 7.625 0 10 0C12.375 0 14.2469 2.14833 14.2469 4.71703C14.2469 5.58228 14.0318 6.39269 13.6569 7.08973C13.6079 7.18107 13.7085 7.29477 13.8072 7.25997C14.2303 7.11083 14.6818 7.02998 15.1508 7.02998C17.5529 7.02998 19.5 9.14246 19.5 11.7483C19.5 14.3541 17.5529 16.4666 15.1508 16.4666C15.1219 16.4666 15.0932 16.4656 15.0645 16.4647L15.0216 16.4633C12.8096 16.515 11.9018 15.0359 11.2361 13.9791C11.114 13.7854 10.7821 13.8695 10.8099 14.0959C11.0684 16.2013 12.3613 18.8913 12.3613 19.6114C12.3613 19.826 12.185 20 11.9676 20H8.03243Z" fill="#211C1D"/>
</svg>
