<svg width="18" height="20" viewBox="0 0 18 20" fill="none" xmlns="http://www.w3.org/2000/svg">
<path d="M7.23752 20C7.02747 20 6.85724 19.8365 6.85724 19.6348C6.85724 19.2053 7.93423 16.3825 8.19433 14.4832C8.22559 14.2548 7.93571 14.1637 7.80471 14.3495C7.17697 15.2399 6.54414 16.1922 4.8225 16.2149C1.61496 16.2572 -0.232807 13.2101 0.776128 10.4373C1.2708 9.07778 8.07542 6.29127e-06 9 0C9.92455 -6.29105e-06 16.7292 9.0778 17.2239 10.4373C18.2328 13.2101 16.385 16.2572 13.1775 16.2149C11.4559 16.1922 10.823 15.2399 10.1953 14.3495C10.0643 14.1637 9.77441 14.2548 9.80567 14.4832C10.0658 16.3825 11.1428 19.2053 11.1428 19.6348C11.1428 19.8365 10.9725 20 10.7625 20H7.23752Z" fill="#211C1D"/>
</svg>
